<svg width="30" height="30" viewBox="0 0 30 30" fill="none" xmlns="http://www.w3.org/2000/svg">
<path d="M14.6875 18.1875C16.8542 16.4375 18.4896 14.7552 19.5938 13.1406C20.6979 11.526 21.25 10.0208 21.25 8.625C21.25 7.39583 21.026 6.35417 20.5781 5.5C20.1302 4.64583 19.5781 3.94792 18.9219 3.40625C18.2656 2.86458 17.5521 2.47396 16.7813 2.23437C16.0104 1.99479 15.3125 1.875 14.6875 1.875C14.0625 1.875 13.3646 1.99479 12.5937 2.23437C11.8229 2.47396 11.1094 2.86458 10.4531 3.40625C9.79688 3.94792 9.24479 4.64583 8.79687 5.5C8.34896 6.35417 8.125 7.39583 8.125 8.625C8.125 10.0208 8.67708 11.526 9.78125 13.1406C10.8854 14.7552 12.5208 16.4375 14.6875 18.1875ZM14.6875 20.5625C11.8333 18.4167 9.71354 16.3646 8.32812 14.4062C6.94271 12.4479 6.25 10.5208 6.25 8.625C6.25 7.20833 6.50521 5.96354 7.01563 4.89062C7.52604 3.81771 8.1875 2.91667 9 2.1875C9.8125 1.45833 10.7187 0.911458 11.7188 0.546875C12.7188 0.182292 13.7083 0 14.6875 0C15.6667 0 16.6562 0.182292 17.6562 0.546875C18.6563 0.911458 19.5625 1.45833 20.375 2.1875C21.1875 2.91667 21.849 3.81771 22.3594 4.89062C22.8698 5.96354 23.125 7.20833 23.125 8.625C23.125 10.5208 22.4323 12.4479 21.0469 14.4062C19.6615 16.3646 17.5417 18.4167 14.6875 20.5625ZM14.6875 10.625C15.2917 10.625 15.8073 10.4115 16.2344 9.98438C16.6615 9.55729 16.875 9.04167 16.875 8.4375C16.875 7.83333 16.6615 7.31771 16.2344 6.89062C15.8073 6.46354 15.2917 6.25 14.6875 6.25C14.0833 6.25 13.5677 6.46354 13.1406 6.89062C12.7135 7.31771 12.5 7.83333 12.5 8.4375C12.5 9.04167 12.7135 9.55729 13.1406 9.98438C13.5677 10.4115 14.0833 10.625 14.6875 10.625ZM6.25 25V23.125H23.125V25H6.25Z" fill="#06277B"/>
</svg>
