<svg width="48" height="48" viewBox="0 0 48 48" fill="none" xmlns="http://www.w3.org/2000/svg">
<circle cx="24" cy="24" r="24" fill="url(#paint0_linear_225_6)"/>
<path d="M7.792 28.084C7.176 28.084 6.624 27.984 6.136 27.784C5.648 27.584 5.256 27.288 4.96 26.896C4.672 26.504 4.52 26.032 4.504 25.48H6.688C6.72 25.792 6.828 26.032 7.012 26.2C7.196 26.36 7.436 26.44 7.732 26.44C8.036 26.44 8.276 26.372 8.452 26.236C8.628 26.092 8.716 25.896 8.716 25.648C8.716 25.44 8.644 25.268 8.5 25.132C8.364 24.996 8.192 24.884 7.984 24.796C7.784 24.708 7.496 24.608 7.12 24.496C6.576 24.328 6.132 24.16 5.788 23.992C5.444 23.824 5.148 23.576 4.9 23.248C4.652 22.92 4.528 22.492 4.528 21.964C4.528 21.18 4.812 20.568 5.38 20.128C5.948 19.68 6.688 19.456 7.6 19.456C8.528 19.456 9.276 19.68 9.844 20.128C10.412 20.568 10.716 21.184 10.756 21.976H8.536C8.52 21.704 8.42 21.492 8.236 21.34C8.052 21.18 7.816 21.1 7.528 21.1C7.28 21.1 7.08 21.168 6.928 21.304C6.776 21.432 6.7 21.62 6.7 21.868C6.7 22.14 6.828 22.352 7.084 22.504C7.34 22.656 7.74 22.82 8.284 22.996C8.828 23.18 9.268 23.356 9.604 23.524C9.948 23.692 10.244 23.936 10.492 24.256C10.74 24.576 10.864 24.988 10.864 25.492C10.864 25.972 10.74 26.408 10.492 26.8C10.252 27.192 9.9 27.504 9.436 27.736C8.972 27.968 8.424 28.084 7.792 28.084ZM18.7388 21.304V28H16.6868V27.088C16.4788 27.384 16.1948 27.624 15.8348 27.808C15.4828 27.984 15.0908 28.072 14.6588 28.072C14.1468 28.072 13.6948 27.96 13.3028 27.736C12.9108 27.504 12.6068 27.172 12.3908 26.74C12.1748 26.308 12.0668 25.8 12.0668 25.216V21.304H14.1068V24.94C14.1068 25.388 14.2228 25.736 14.4548 25.984C14.6868 26.232 14.9988 26.356 15.3908 26.356C15.7908 26.356 16.1068 26.232 16.3388 25.984C16.5708 25.736 16.6868 25.388 16.6868 24.94V21.304H18.7388ZM24.2928 21.232C25.0768 21.232 25.7008 21.488 26.1648 22C26.6368 22.504 26.8728 23.2 26.8728 24.088V28H24.8328V24.364C24.8328 23.916 24.7168 23.568 24.4848 23.32C24.2528 23.072 23.9408 22.948 23.5488 22.948C23.1568 22.948 22.8448 23.072 22.6128 23.32C22.3808 23.568 22.2648 23.916 22.2648 24.364V28H20.2128V21.304H22.2648V22.192C22.4728 21.896 22.7528 21.664 23.1048 21.496C23.4568 21.32 23.8528 21.232 24.2928 21.232ZM31.3467 28.084C30.7307 28.084 30.1787 27.984 29.6907 27.784C29.2027 27.584 28.8107 27.288 28.5147 26.896C28.2267 26.504 28.0747 26.032 28.0587 25.48H30.2427C30.2747 25.792 30.3827 26.032 30.5667 26.2C30.7507 26.36 30.9907 26.44 31.2867 26.44C31.5907 26.44 31.8307 26.372 32.0067 26.236C32.1827 26.092 32.2707 25.896 32.2707 25.648C32.2707 25.44 32.1987 25.268 32.0547 25.132C31.9187 24.996 31.7467 24.884 31.5387 24.796C31.3387 24.708 31.0507 24.608 30.6747 24.496C30.1307 24.328 29.6867 24.16 29.3427 23.992C28.9987 23.824 28.7027 23.576 28.4547 23.248C28.2067 22.92 28.0827 22.492 28.0827 21.964C28.0827 21.18 28.3667 20.568 28.9347 20.128C29.5027 19.68 30.2427 19.456 31.1547 19.456C32.0827 19.456 32.8307 19.68 33.3987 20.128C33.9667 20.568 34.2707 21.184 34.3107 21.976H32.0907C32.0747 21.704 31.9747 21.492 31.7907 21.34C31.6067 21.18 31.3707 21.1 31.0827 21.1C30.8347 21.1 30.6347 21.168 30.4827 21.304C30.3307 21.432 30.2547 21.62 30.2547 21.868C30.2547 22.14 30.3827 22.352 30.6387 22.504C30.8947 22.656 31.2947 22.82 31.8387 22.996C32.3827 23.18 32.8227 23.356 33.1587 23.524C33.5027 23.692 33.7987 23.936 34.0467 24.256C34.2947 24.576 34.4187 24.988 34.4187 25.492C34.4187 25.972 34.2947 26.408 34.0467 26.8C33.8067 27.192 33.4547 27.504 32.9907 27.736C32.5267 27.968 31.9787 28.084 31.3467 28.084ZM39.4135 26.26V28H38.3695C37.6255 28 37.0455 27.82 36.6295 27.46C36.2135 27.092 36.0055 26.496 36.0055 25.672V23.008H35.1895V21.304H36.0055V19.672H38.0575V21.304H39.4015V23.008H38.0575V25.696C38.0575 25.896 38.1055 26.04 38.2015 26.128C38.2975 26.216 38.4575 26.26 38.6815 26.26H39.4135ZM42.6085 22.42C42.8485 22.052 43.1485 21.764 43.5085 21.556C43.8685 21.34 44.2685 21.232 44.7085 21.232V23.404H44.1445C43.6325 23.404 43.2485 23.516 42.9925 23.74C42.7365 23.956 42.6085 24.34 42.6085 24.892V28H40.5565V21.304H42.6085V22.42Z" fill="#D8DBF1"/>
<defs>
<linearGradient id="paint0_linear_225_6" x1="24" y1="0" x2="24" y2="48" gradientUnits="userSpaceOnUse">
<stop stop-color="#387FEA"/>
<stop offset="1" stop-color="#0A114B"/>
</linearGradient>
</defs>
</svg>
