<svg width="35" height="35" viewBox="0 0 35 35" fill="none" xmlns="http://www.w3.org/2000/svg">
<path d="M17.5003 30.5885L16.0055 29.2396C13.4291 26.8819 11.3024 24.8463 9.62533 23.1328C7.94824 21.4192 6.61144 19.888 5.61491 18.539C4.61838 17.1901 3.9196 15.9687 3.51855 14.875C3.11751 13.7812 2.91699 12.6753 2.91699 11.5573C2.91699 9.36977 3.65224 7.54078 5.12272 6.07029C6.59321 4.59981 8.41005 3.86456 10.5732 3.86456C11.9587 3.86456 13.2408 4.19269 14.4196 4.84894C15.5984 5.50519 16.6253 6.4531 17.5003 7.69269C18.5212 6.38019 19.6028 5.41404 20.7451 4.79425C21.8875 4.17446 23.1149 3.86456 24.4274 3.86456C26.5906 3.86456 28.4074 4.59981 29.8779 6.07029C31.3484 7.54078 32.0837 9.36977 32.0837 11.5573C32.0837 12.6753 31.8831 13.7812 31.4821 14.875C31.0811 15.9687 30.3823 17.1901 29.3857 18.539C28.3892 19.888 27.0524 21.4192 25.3753 23.1328C23.6982 24.8463 21.5715 26.8819 18.9951 29.2396L17.5003 30.5885ZM17.5003 27.7083C19.9552 25.4479 21.9786 23.5095 23.5706 21.8932C25.1627 20.2769 26.4265 18.8611 27.3623 17.6458C28.2981 16.4305 28.9543 15.3489 29.3311 14.401C29.7078 13.4531 29.8962 12.5052 29.8962 11.5573C29.8962 9.9531 29.3857 8.63453 28.3649 7.60154C27.3441 6.56856 26.0316 6.05206 24.4274 6.05206C23.1878 6.05206 22.0333 6.43488 20.9639 7.2005C19.8944 7.96613 19.0316 9.04165 18.3753 10.4271H16.5889C15.9569 9.06595 15.1062 7.99651 14.0368 7.21873C12.9673 6.44095 11.8128 6.05206 10.5732 6.05206C8.96908 6.05206 7.65658 6.56856 6.63574 7.60154C5.61491 8.63453 5.10449 9.9531 5.10449 11.5573C5.10449 12.5052 5.29286 13.4592 5.6696 14.4192C6.04633 15.3793 6.70258 16.4731 7.63835 17.7005C8.57411 18.9279 9.84407 20.3437 11.4482 21.9479C13.0524 23.5521 15.0698 25.4722 17.5003 27.7083Z" fill="#06277B"/>
</svg>
