<svg width="35" height="35" viewBox="0 0 35 35" fill="none" xmlns="http://www.w3.org/2000/svg">
<path d="M10.4635 32.0469C9.73438 32.0469 9.11458 31.7917 8.60417 31.2813C8.09375 30.7709 7.83854 30.1511 7.83854 29.4219C7.83854 28.6927 8.09375 28.0729 8.60417 27.5625C9.11458 27.0521 9.73438 26.7969 10.4635 26.7969C11.1684 26.7969 11.7821 27.0521 12.3047 27.5625C12.8273 28.0729 13.0885 28.6927 13.0885 29.4219C13.0885 30.1511 12.8333 30.7709 12.3229 31.2813C11.8125 31.7917 11.1927 32.0469 10.4635 32.0469V32.0469ZM25.0469 32.0469C24.3177 32.0469 23.6979 31.7917 23.1875 31.2813C22.6771 30.7709 22.4219 30.1511 22.4219 29.4219C22.4219 28.6927 22.6771 28.0729 23.1875 27.5625C23.6979 27.0521 24.3177 26.7969 25.0469 26.7969C25.7517 26.7969 26.3655 27.0521 26.888 27.5625C27.4106 28.0729 27.6719 28.6927 27.6719 29.4219C27.6719 30.1511 27.4167 30.7709 26.9063 31.2813C26.3958 31.7917 25.776 32.0469 25.0469 32.0469V32.0469ZM8.56771 7.9844L12.5781 16.2969H23.0781L27.6354 7.9844H8.56771ZM7.47396 5.7969H28.9479C29.7257 5.7969 30.2179 6.03387 30.4245 6.50783C30.6311 6.98179 30.5642 7.51044 30.224 8.09377L25.3021 16.9531C25.059 17.3663 24.7188 17.7248 24.2813 18.0287C23.8438 18.3325 23.3698 18.4844 22.8594 18.4844H11.8125L9.77083 22.2761H27.6719V24.4636H10.099C9.07813 24.4636 8.34288 24.1233 7.89323 23.4427C7.44358 22.7622 7.44965 21.9965 7.91146 21.1459L10.2448 16.8438L4.70312 5.10419H1.85938V2.91669H6.125L7.47396 5.7969ZM12.5781 16.2969H23.0781H12.5781Z" fill="#06277B"/>
</svg>
