<svg width="171" height="71" viewBox="0 0 171 71" fill="none" xmlns="http://www.w3.org/2000/svg">
<path d="M18.768 30.856C17.1253 30.856 15.6533 30.5893 14.352 30.056C13.0507 29.5227 12.0053 28.7333 11.216 27.688C10.448 26.6427 10.0427 25.384 10 23.912H15.824C15.9093 24.744 16.1973 25.384 16.688 25.832C17.1787 26.2587 17.8187 26.472 18.608 26.472C19.4187 26.472 20.0587 26.2907 20.528 25.928C20.9973 25.544 21.232 25.0213 21.232 24.36C21.232 23.8053 21.04 23.3467 20.656 22.984C20.2933 22.6213 19.8347 22.3227 19.28 22.088C18.7467 21.8533 17.9787 21.5867 16.976 21.288C15.5253 20.84 14.3413 20.392 13.424 19.944C12.5067 19.496 11.7173 18.8347 11.056 17.96C10.3947 17.0853 10.064 15.944 10.064 14.536C10.064 12.4453 10.8213 10.8133 12.336 9.64C13.8507 8.44533 15.824 7.848 18.256 7.848C20.7307 7.848 22.7253 8.44533 24.24 9.64C25.7547 10.8133 26.5653 12.456 26.672 14.568H20.752C20.7093 13.8427 20.4427 13.2773 19.952 12.872C19.4613 12.4453 18.832 12.232 18.064 12.232C17.4027 12.232 16.8693 12.4133 16.464 12.776C16.0587 13.1173 15.856 13.6187 15.856 14.28C15.856 15.0053 16.1973 15.5707 16.88 15.976C17.5627 16.3813 18.6293 16.8187 20.08 17.288C21.5307 17.7787 22.704 18.248 23.6 18.696C24.5173 19.144 25.3067 19.7947 25.968 20.648C26.6293 21.5013 26.96 22.6 26.96 23.944C26.96 25.224 26.6293 26.3867 25.968 27.432C25.328 28.4773 24.3893 29.3093 23.152 29.928C21.9147 30.5467 20.4533 30.856 18.768 30.856Z" fill="url(#paint0_linear_223_73)"/>
<path d="M47.9595 12.776V30.632H42.4875V28.2C41.9328 28.9893 41.1755 29.6293 40.2155 30.12C39.2768 30.5893 38.2315 30.824 37.0795 30.824C35.7142 30.824 34.5088 30.5253 33.4635 29.928C32.4182 29.3093 31.6075 28.424 31.0315 27.272C30.4555 26.12 30.1675 24.7653 30.1675 23.208V12.776H35.6075V22.472C35.6075 23.6667 35.9168 24.5947 36.5355 25.256C37.1542 25.9173 37.9862 26.248 39.0315 26.248C40.0982 26.248 40.9408 25.9173 41.5595 25.256C42.1782 24.5947 42.4875 23.6667 42.4875 22.472V12.776H47.9595Z" fill="url(#paint1_linear_223_73)"/>
<path d="M62.77 12.584C64.8607 12.584 66.5247 13.2667 67.762 14.632C69.0207 15.976 69.65 17.832 69.65 20.2V30.632H64.21V20.936C64.21 19.7413 63.9007 18.8133 63.282 18.152C62.6633 17.4907 61.8313 17.16 60.786 17.16C59.7407 17.16 58.9087 17.4907 58.29 18.152C57.6713 18.8133 57.362 19.7413 57.362 20.936V30.632H51.89V12.776H57.362V15.144C57.9167 14.3547 58.6633 13.736 59.602 13.288C60.5407 12.8187 61.5967 12.584 62.77 12.584Z" fill="url(#paint2_linear_223_73)"/>
<path d="M80.7165 30.888C79.1592 30.888 77.7725 30.6213 76.5565 30.088C75.3405 29.5547 74.3805 28.8293 73.6765 27.912C72.9725 26.9733 72.5778 25.928 72.4925 24.776H77.9005C77.9645 25.3947 78.2525 25.896 78.7645 26.28C79.2765 26.664 79.9058 26.856 80.6525 26.856C81.3352 26.856 81.8578 26.728 82.2205 26.472C82.6045 26.1947 82.7965 25.8427 82.7965 25.416C82.7965 24.904 82.5298 24.5307 81.9965 24.296C81.4632 24.04 80.5992 23.7627 79.4045 23.464C78.1245 23.1653 77.0578 22.856 76.2045 22.536C75.3512 22.1947 74.6152 21.672 73.9965 20.968C73.3778 20.2427 73.0685 19.272 73.0685 18.056C73.0685 17.032 73.3458 16.104 73.9005 15.272C74.4765 14.4187 75.3085 13.7467 76.3965 13.256C77.5058 12.7653 78.8178 12.52 80.3325 12.52C82.5725 12.52 84.3325 13.0747 85.6125 14.184C86.9138 15.2933 87.6605 16.7653 87.8525 18.6H82.7965C82.7112 17.9813 82.4338 17.4907 81.9645 17.128C81.5165 16.7653 80.9192 16.584 80.1725 16.584C79.5325 16.584 79.0418 16.712 78.7005 16.968C78.3592 17.2027 78.1885 17.5333 78.1885 17.96C78.1885 18.472 78.4552 18.856 78.9885 19.112C79.5432 19.368 80.3965 19.624 81.5485 19.88C82.8712 20.2213 83.9485 20.5627 84.7805 20.904C85.6125 21.224 86.3378 21.7573 86.9565 22.504C87.5965 23.2293 87.9272 24.2107 87.9485 25.448C87.9485 26.4933 87.6498 27.432 87.0525 28.264C86.4765 29.0747 85.6338 29.7147 84.5245 30.184C83.4365 30.6533 82.1672 30.888 80.7165 30.888Z" fill="url(#paint3_linear_223_73)"/>
<path d="M102.272 12.584C104.32 12.584 105.963 13.2667 107.2 14.632C108.438 15.976 109.056 17.832 109.056 20.2V30.632H103.616V20.936C103.616 19.7413 103.307 18.8133 102.688 18.152C102.07 17.4907 101.238 17.16 100.192 17.16C99.1469 17.16 98.3149 17.4907 97.6963 18.152C97.0776 18.8133 96.7682 19.7413 96.7682 20.936V30.632H91.2962V6.952H96.7682V15.176C97.3229 14.3867 98.0803 13.7573 99.0403 13.288C100 12.8187 101.078 12.584 102.272 12.584Z" fill="url(#paint4_linear_223_73)"/>
<path d="M115.611 10.92C114.651 10.92 113.861 10.6427 113.243 10.088C112.645 9.512 112.347 8.808 112.347 7.976C112.347 7.12267 112.645 6.41867 113.243 5.864C113.861 5.288 114.651 5 115.611 5C116.549 5 117.317 5.288 117.915 5.864C118.533 6.41867 118.843 7.12267 118.843 7.976C118.843 8.808 118.533 9.512 117.915 10.088C117.317 10.6427 116.549 10.92 115.611 10.92ZM118.331 12.776V30.632H112.859V12.776H118.331Z" fill="url(#paint5_linear_223_73)"/>
<path d="M133.176 12.584C135.267 12.584 136.931 13.2667 138.168 14.632C139.427 15.976 140.056 17.832 140.056 20.2V30.632H134.616V20.936C134.616 19.7413 134.307 18.8133 133.688 18.152C133.07 17.4907 132.238 17.16 131.192 17.16C130.147 17.16 129.315 17.4907 128.696 18.152C128.078 18.8133 127.768 19.7413 127.768 20.936V30.632H122.296V12.776H127.768V15.144C128.323 14.3547 129.07 13.736 130.008 13.288C130.947 12.8187 132.003 12.584 133.176 12.584Z" fill="url(#paint6_linear_223_73)"/>
<path d="M160.691 21.416C160.691 21.928 160.659 22.4613 160.595 23.016H148.211C148.296 24.1253 148.648 24.9787 149.267 25.576C149.907 26.152 150.685 26.44 151.603 26.44C152.968 26.44 153.917 25.864 154.451 24.712H160.275C159.976 25.8853 159.432 26.9413 158.643 27.88C157.875 28.8187 156.904 29.5547 155.731 30.088C154.557 30.6213 153.245 30.888 151.795 30.888C150.045 30.888 148.488 30.5147 147.123 29.768C145.757 29.0213 144.691 27.9547 143.923 26.568C143.155 25.1813 142.771 23.56 142.771 21.704C142.771 19.848 143.144 18.2267 143.891 16.84C144.659 15.4533 145.725 14.3867 147.091 13.64C148.456 12.8933 150.024 12.52 151.795 12.52C153.523 12.52 155.059 12.8827 156.403 13.608C157.747 14.3333 158.792 15.368 159.539 16.712C160.307 18.056 160.691 19.624 160.691 21.416ZM155.091 19.976C155.091 19.0373 154.771 18.2907 154.131 17.736C153.491 17.1813 152.691 16.904 151.731 16.904C150.813 16.904 150.035 17.1707 149.395 17.704C148.776 18.2373 148.392 18.9947 148.243 19.976H155.091Z" fill="url(#paint7_linear_223_73)"/>
<path d="M52.0024 65.856C50.3597 65.856 48.8877 65.5893 47.5864 65.056C46.285 64.5227 45.2397 63.7333 44.4504 62.688C43.6824 61.6427 43.277 60.384 43.2344 58.912H49.0584C49.1437 59.744 49.4317 60.384 49.9224 60.832C50.413 61.2587 51.053 61.472 51.8424 61.472C52.653 61.472 53.293 61.2907 53.7624 60.928C54.2317 60.544 54.4664 60.0213 54.4664 59.36C54.4664 58.8053 54.2744 58.3467 53.8904 57.984C53.5277 57.6213 53.069 57.3227 52.5144 57.088C51.981 56.8533 51.213 56.5867 50.2104 56.288C48.7597 55.84 47.5757 55.392 46.6584 54.944C45.741 54.496 44.9517 53.8347 44.2904 52.96C43.629 52.0853 43.2984 50.944 43.2984 49.536C43.2984 47.4453 44.0557 45.8133 45.5704 44.64C47.085 43.4453 49.0584 42.848 51.4904 42.848C53.965 42.848 55.9597 43.4453 57.4744 44.64C58.989 45.8133 59.7997 47.456 59.9064 49.568H53.9864C53.9437 48.8427 53.677 48.2773 53.1864 47.872C52.6957 47.4453 52.0664 47.232 51.2984 47.232C50.637 47.232 50.1037 47.4133 49.6984 47.776C49.293 48.1173 49.0904 48.6187 49.0904 49.28C49.0904 50.0053 49.4317 50.5707 50.1144 50.976C50.797 51.3813 51.8637 51.8187 53.3144 52.288C54.765 52.7787 55.9384 53.248 56.8344 53.696C57.7517 54.144 58.541 54.7947 59.2024 55.648C59.8637 56.5013 60.1944 57.6 60.1944 58.944C60.1944 60.224 59.8637 61.3867 59.2024 62.432C58.5624 63.4773 57.6237 64.3093 56.3864 64.928C55.149 65.5467 53.6877 65.856 52.0024 65.856Z" fill="url(#paint8_linear_223_73)"/>
<path d="M73.5139 60.992V65.632H70.7299C68.7459 65.632 67.1992 65.152 66.0899 64.192C64.9805 63.2107 64.4259 61.6213 64.4259 59.424V52.32H62.2499V47.776H64.4259V43.424H69.8979V47.776H73.4819V52.32H69.8979V59.488C69.8979 60.0213 70.0259 60.4053 70.2819 60.64C70.5379 60.8747 70.9645 60.992 71.5619 60.992H73.5139Z" fill="url(#paint9_linear_223_73)"/>
<path d="M84.6899 65.888C82.9405 65.888 81.3619 65.5147 79.9539 64.768C78.5672 64.0213 77.4685 62.9547 76.6579 61.568C75.8685 60.1813 75.4739 58.56 75.4739 56.704C75.4739 54.8693 75.8792 53.2587 76.6899 51.872C77.5005 50.464 78.6099 49.3867 80.0179 48.64C81.4259 47.8933 83.0045 47.52 84.7539 47.52C86.5032 47.52 88.0819 47.8933 89.4899 48.64C90.8979 49.3867 92.0072 50.464 92.8179 51.872C93.6285 53.2587 94.0339 54.8693 94.0339 56.704C94.0339 58.5387 93.6179 60.16 92.7859 61.568C91.9752 62.9547 90.8552 64.0213 89.4259 64.768C88.0179 65.5147 86.4392 65.888 84.6899 65.888ZM84.6899 61.152C85.7352 61.152 86.6205 60.768 87.3459 60C88.0925 59.232 88.4659 58.1333 88.4659 56.704C88.4659 55.2747 88.1032 54.176 87.3779 53.408C86.6739 52.64 85.7992 52.256 84.7539 52.256C83.6872 52.256 82.8019 52.64 82.0979 53.408C81.3939 54.1547 81.0419 55.2533 81.0419 56.704C81.0419 58.1333 81.3832 59.232 82.0659 60C82.7699 60.768 83.6445 61.152 84.6899 61.152Z" fill="url(#paint10_linear_223_73)"/>
<path d="M102.409 50.752C103.049 49.7707 103.849 49.0027 104.809 48.448C105.769 47.872 106.836 47.584 108.009 47.584V53.376H106.505C105.14 53.376 104.116 53.6747 103.433 54.272C102.75 54.848 102.409 55.872 102.409 57.344V65.632H96.9369V47.776H102.409V50.752Z" fill="url(#paint11_linear_223_73)"/>
<path d="M127.456 56.416C127.456 56.928 127.424 57.4613 127.36 58.016H114.976C115.062 59.1253 115.414 59.9787 116.032 60.576C116.672 61.152 117.451 61.44 118.368 61.44C119.734 61.44 120.683 60.864 121.216 59.712H127.04C126.742 60.8853 126.198 61.9413 125.408 62.88C124.64 63.8187 123.67 64.5547 122.496 65.088C121.323 65.6213 120.011 65.888 118.56 65.888C116.811 65.888 115.254 65.5147 113.888 64.768C112.523 64.0213 111.456 62.9547 110.688 61.568C109.92 60.1813 109.536 58.56 109.536 56.704C109.536 54.848 109.91 53.2267 110.656 51.84C111.424 50.4533 112.491 49.3867 113.856 48.64C115.222 47.8933 116.79 47.52 118.56 47.52C120.288 47.52 121.824 47.8827 123.168 48.608C124.512 49.3333 125.558 50.368 126.304 51.712C127.072 53.056 127.456 54.624 127.456 56.416ZM121.856 54.976C121.856 54.0373 121.536 53.2907 120.896 52.736C120.256 52.1813 119.456 51.904 118.496 51.904C117.579 51.904 116.8 52.1707 116.16 52.704C115.542 53.2373 115.158 53.9947 115.008 54.976H121.856Z" fill="url(#paint12_linear_223_73)"/>
<defs>
<linearGradient id="paint0_linear_223_73" x1="7.625" y1="41.132" x2="141.125" y2="40.632" gradientUnits="userSpaceOnUse">
<stop stop-color="#387FEA"/>
<stop offset="0.50575" stop-color="#164BD3"/>
<stop offset="1" stop-color="#0A114B"/>
</linearGradient>
<linearGradient id="paint1_linear_223_73" x1="7.625" y1="41.132" x2="141.125" y2="40.632" gradientUnits="userSpaceOnUse">
<stop stop-color="#387FEA"/>
<stop offset="0.50575" stop-color="#164BD3"/>
<stop offset="1" stop-color="#0A114B"/>
</linearGradient>
<linearGradient id="paint2_linear_223_73" x1="7.625" y1="41.132" x2="141.125" y2="40.632" gradientUnits="userSpaceOnUse">
<stop stop-color="#387FEA"/>
<stop offset="0.50575" stop-color="#164BD3"/>
<stop offset="1" stop-color="#0A114B"/>
</linearGradient>
<linearGradient id="paint3_linear_223_73" x1="7.625" y1="41.132" x2="141.125" y2="40.632" gradientUnits="userSpaceOnUse">
<stop stop-color="#387FEA"/>
<stop offset="0.50575" stop-color="#164BD3"/>
<stop offset="1" stop-color="#0A114B"/>
</linearGradient>
<linearGradient id="paint4_linear_223_73" x1="7.625" y1="41.132" x2="141.125" y2="40.632" gradientUnits="userSpaceOnUse">
<stop stop-color="#387FEA"/>
<stop offset="0.50575" stop-color="#164BD3"/>
<stop offset="1" stop-color="#0A114B"/>
</linearGradient>
<linearGradient id="paint5_linear_223_73" x1="7.625" y1="41.132" x2="141.125" y2="40.632" gradientUnits="userSpaceOnUse">
<stop stop-color="#387FEA"/>
<stop offset="0.50575" stop-color="#164BD3"/>
<stop offset="1" stop-color="#0A114B"/>
</linearGradient>
<linearGradient id="paint6_linear_223_73" x1="7.625" y1="41.132" x2="141.125" y2="40.632" gradientUnits="userSpaceOnUse">
<stop stop-color="#387FEA"/>
<stop offset="0.50575" stop-color="#164BD3"/>
<stop offset="1" stop-color="#0A114B"/>
</linearGradient>
<linearGradient id="paint7_linear_223_73" x1="7.625" y1="41.132" x2="141.125" y2="40.632" gradientUnits="userSpaceOnUse">
<stop stop-color="#387FEA"/>
<stop offset="0.50575" stop-color="#164BD3"/>
<stop offset="1" stop-color="#0A114B"/>
</linearGradient>
<linearGradient id="paint8_linear_223_73" x1="7.625" y1="41.132" x2="141.125" y2="40.632" gradientUnits="userSpaceOnUse">
<stop stop-color="#387FEA"/>
<stop offset="0.50575" stop-color="#164BD3"/>
<stop offset="1" stop-color="#0A114B"/>
</linearGradient>
<linearGradient id="paint9_linear_223_73" x1="7.625" y1="41.132" x2="141.125" y2="40.632" gradientUnits="userSpaceOnUse">
<stop stop-color="#387FEA"/>
<stop offset="0.50575" stop-color="#164BD3"/>
<stop offset="1" stop-color="#0A114B"/>
</linearGradient>
<linearGradient id="paint10_linear_223_73" x1="7.625" y1="41.132" x2="141.125" y2="40.632" gradientUnits="userSpaceOnUse">
<stop stop-color="#387FEA"/>
<stop offset="0.50575" stop-color="#164BD3"/>
<stop offset="1" stop-color="#0A114B"/>
</linearGradient>
<linearGradient id="paint11_linear_223_73" x1="7.625" y1="41.132" x2="141.125" y2="40.632" gradientUnits="userSpaceOnUse">
<stop stop-color="#387FEA"/>
<stop offset="0.50575" stop-color="#164BD3"/>
<stop offset="1" stop-color="#0A114B"/>
</linearGradient>
<linearGradient id="paint12_linear_223_73" x1="7.625" y1="41.132" x2="141.125" y2="40.632" gradientUnits="userSpaceOnUse">
<stop stop-color="#387FEA"/>
<stop offset="0.50575" stop-color="#164BD3"/>
<stop offset="1" stop-color="#0A114B"/>
</linearGradient>
</defs>
</svg>
