<svg width="193" height="33" viewBox="0 0 193 33" fill="none" xmlns="http://www.w3.org/2000/svg">
<path d="M11.096 2.528C13.352 2.528 15.38 2.996 17.18 3.932L16.316 8L15.92 8.18C15.2 7.676 14.408 7.28 13.544 6.992C12.68 6.704 11.792 6.56 10.88 6.56C7.064 6.56 5.156 9.068 5.156 14.084C5.156 16.796 5.648 18.836 6.632 20.204C7.64 21.548 9.104 22.22 11.024 22.22C11.912 22.22 12.824 22.088 13.76 21.824C14.72 21.536 15.584 21.152 16.352 20.672L16.784 20.924L16.388 25.064C14.564 25.904 12.644 26.324 10.628 26.324C7.172 26.324 4.532 25.316 2.708 23.3C0.908 21.284 0.00800003 18.392 0.00800003 14.624C0.00800003 10.784 0.968 7.808 2.888 5.696C4.832 3.584 7.568 2.528 11.096 2.528ZM26.1792 8.936C28.6272 8.936 30.4992 9.656 31.7952 11.096C33.0912 12.536 33.7392 14.612 33.7392 17.324C33.7392 20.252 33.0432 22.496 31.6512 24.056C30.2592 25.592 28.2552 26.36 25.6392 26.36C23.1912 26.36 21.3192 25.64 20.0232 24.2C18.7272 22.76 18.0792 20.684 18.0792 17.972C18.0792 15.044 18.7752 12.812 20.1672 11.276C21.5592 9.716 23.5632 8.936 26.1792 8.936ZM25.8552 12.176C24.7032 12.176 23.8632 12.56 23.3352 13.328C22.8312 14.096 22.5792 15.332 22.5792 17.036C22.5792 19.244 22.8432 20.816 23.3712 21.752C23.8992 22.688 24.7632 23.156 25.9632 23.156C27.1152 23.156 27.9432 22.784 28.4472 22.04C28.9752 21.272 29.2392 20.024 29.2392 18.296C29.2392 16.112 28.9632 14.552 28.4112 13.616C27.8832 12.656 27.0312 12.176 25.8552 12.176ZM56.8613 26L57.1493 15.56C57.1493 13.784 56.3933 12.896 54.8813 12.896C53.8013 12.896 52.6733 13.376 51.4973 14.336L51.3893 18.656L51.6053 26H46.8173L47.1053 15.56C47.1293 14.696 46.9373 14.036 46.5293 13.58C46.1453 13.124 45.5813 12.896 44.8373 12.896C43.7813 12.896 42.6173 13.4 41.3453 14.408V18.62L41.5613 26H36.8093L37.0613 19.088L36.8813 9.584L41.3813 9.188V11.636H41.6333C42.9533 10.436 44.4053 9.572 45.9893 9.044C48.6773 9.044 50.3933 9.944 51.1373 11.744H51.3533C52.7213 10.472 54.2813 9.572 56.0333 9.044C57.8573 9.044 59.2373 9.464 60.1733 10.304C61.1333 11.12 61.5893 12.308 61.5413 13.868L61.4333 18.656L61.6493 26H56.8613ZM74.7043 9.044C76.7923 9.044 78.4003 9.752 79.5283 11.168C80.6563 12.584 81.2203 14.588 81.2203 17.18C81.2203 20.108 80.4883 22.376 79.0243 23.984C77.5843 25.568 75.5443 26.36 72.9043 26.36C72.1363 26.36 71.3323 26.288 70.4923 26.144L70.6003 32.66H65.8483L66.1003 19.088L65.8843 9.584L70.4563 9.188L70.4203 11.636H70.6723C71.3443 10.988 71.9923 10.472 72.6163 10.088C73.2403 9.68 73.9363 9.332 74.7043 9.044ZM72.9403 23.228C74.1883 23.228 75.1363 22.784 75.7843 21.896C76.4323 21.008 76.7563 19.7 76.7563 17.972C76.7563 16.292 76.4803 15.032 75.9283 14.192C75.4003 13.328 74.6083 12.896 73.5523 12.896C72.5203 12.896 71.4763 13.412 70.4203 14.444L70.3843 18.62L70.4563 22.688C71.3203 23.048 72.1483 23.228 72.9403 23.228ZM93.5222 9.224C93.7382 9.224 94.0382 9.248 94.4222 9.296V13.724L93.9182 13.904C93.5102 13.736 93.0662 13.652 92.5862 13.652C91.1942 13.652 89.9342 14.552 88.8062 16.352V18.62L89.0582 26H84.2702L84.5582 19.088L84.3422 9.584L88.8782 9.188L88.8422 12.464H89.1302C90.3062 10.304 91.7702 9.224 93.5222 9.224ZM103.022 8.936C104.87 8.936 106.31 9.356 107.342 10.196C108.398 11.012 108.926 12.164 108.926 13.652C108.926 14.084 108.854 15.452 108.71 17.756C108.686 18.428 108.65 19.124 108.602 19.844C108.554 20.54 108.53 21.14 108.53 21.644C108.53 22.052 108.59 22.34 108.71 22.508C108.83 22.652 109.046 22.724 109.358 22.724C109.598 22.724 109.91 22.676 110.294 22.58L110.654 22.868L110.222 25.388C109.454 25.892 108.578 26.192 107.594 26.288C106.874 26.216 106.274 25.964 105.794 25.532C105.314 25.076 104.99 24.452 104.822 23.66H104.57C103.37 24.932 102.134 25.82 100.862 26.324C99.1343 26.3 97.7783 25.844 96.7943 24.956C95.8103 24.068 95.3183 22.856 95.3183 21.32C95.3183 20.12 95.6183 19.184 96.2183 18.512C96.8423 17.816 97.7783 17.348 99.0263 17.108L104.534 16.064V14.588C104.534 13.028 103.766 12.248 102.23 12.248C101.486 12.248 100.694 12.416 99.8543 12.752C99.0383 13.088 98.1143 13.616 97.0823 14.336L96.7223 14.12L96.1823 10.952C97.2143 10.304 98.3183 9.812 99.4943 9.476C100.67 9.116 101.846 8.936 103.022 8.936ZM100.682 19.304C100.298 19.4 100.01 19.568 99.8183 19.808C99.6503 20.024 99.5663 20.36 99.5663 20.816C99.5663 21.44 99.7343 21.932 100.07 22.292C100.406 22.628 100.874 22.796 101.474 22.796C102.41 22.796 103.394 22.244 104.426 21.14L104.498 18.476L100.682 19.304ZM119.382 8.972C121.014 8.972 122.55 9.248 123.99 9.8L123.342 13.328L122.766 13.508C122.07 13.052 121.374 12.704 120.678 12.464C119.982 12.224 119.37 12.104 118.842 12.104C118.266 12.104 117.81 12.26 117.474 12.572C117.138 12.86 116.97 13.22 116.97 13.652C116.97 14.156 117.186 14.564 117.618 14.876C118.074 15.188 118.782 15.536 119.742 15.92C120.702 16.304 121.494 16.676 122.118 17.036C122.742 17.396 123.27 17.9 123.702 18.548C124.158 19.172 124.386 19.952 124.386 20.888C124.386 21.848 124.134 22.748 123.63 23.588C123.15 24.404 122.406 25.076 121.398 25.604C120.39 26.108 119.154 26.36 117.69 26.36C115.962 26.36 114.174 26 112.326 25.28L112.866 21.536L113.334 21.248C114.078 21.872 114.906 22.376 115.818 22.76C116.73 23.12 117.534 23.3 118.23 23.3C118.878 23.3 119.382 23.144 119.742 22.832C120.102 22.496 120.282 22.1 120.282 21.644C120.282 21.14 120.054 20.732 119.598 20.42C119.166 20.108 118.47 19.76 117.51 19.376C116.526 18.944 115.722 18.56 115.098 18.224C114.474 17.864 113.934 17.36 113.478 16.712C113.046 16.064 112.83 15.26 112.83 14.3C112.83 12.74 113.418 11.468 114.594 10.484C115.77 9.476 117.366 8.972 119.382 8.972ZM145.812 16.784C147.684 19.76 149.544 22.448 151.392 24.848L151.32 25.388C149.76 25.94 148.164 26.264 146.532 26.36L146.028 25.964C144.3 22.988 142.896 20.396 141.816 18.188H138.324V18.656L138.54 26H133.644L133.896 19.088L133.644 2.816L142.536 2.78C144.96 2.78 146.832 3.38 148.152 4.58C149.472 5.756 150.132 7.448 150.132 9.656C150.132 11.144 149.748 12.512 148.98 13.76C148.236 14.984 147.18 15.992 145.812 16.784ZM138.396 14.408L141.96 14.552C144 13.856 145.02 12.38 145.02 10.124C145.02 8.9 144.684 7.988 144.012 7.388C143.364 6.764 142.356 6.428 140.988 6.38L138.54 6.524L138.396 14.408ZM166.031 18.224L156.311 18.296C156.527 21.296 158.051 22.796 160.883 22.796C162.371 22.796 164.027 22.376 165.851 21.536L166.247 21.788L165.527 25.352C163.703 26.024 161.987 26.36 160.379 26.36C157.739 26.36 155.663 25.592 154.151 24.056C152.663 22.52 151.919 20.396 151.919 17.684C151.919 14.996 152.651 12.872 154.115 11.312C155.579 9.728 157.559 8.936 160.055 8.936C162.191 8.936 163.835 9.524 164.987 10.7C166.163 11.852 166.751 13.472 166.751 15.56C166.751 16.112 166.691 16.808 166.571 17.648L166.031 18.224ZM162.575 15.02C162.575 14.06 162.359 13.34 161.927 12.86C161.495 12.356 160.859 12.104 160.019 12.104C159.083 12.104 158.303 12.416 157.679 13.04C157.055 13.64 156.635 14.516 156.419 15.668L162.503 15.524L162.575 15.02ZM176.639 8.936C178.487 8.936 179.927 9.356 180.959 10.196C182.015 11.012 182.543 12.164 182.543 13.652C182.543 14.084 182.471 15.452 182.327 17.756C182.303 18.428 182.267 19.124 182.219 19.844C182.171 20.54 182.147 21.14 182.147 21.644C182.147 22.052 182.207 22.34 182.327 22.508C182.447 22.652 182.663 22.724 182.975 22.724C183.215 22.724 183.527 22.676 183.911 22.58L184.271 22.868L183.839 25.388C183.071 25.892 182.195 26.192 181.211 26.288C180.491 26.216 179.891 25.964 179.411 25.532C178.931 25.076 178.607 24.452 178.439 23.66H178.187C176.987 24.932 175.751 25.82 174.479 26.324C172.751 26.3 171.395 25.844 170.411 24.956C169.427 24.068 168.935 22.856 168.935 21.32C168.935 20.12 169.235 19.184 169.835 18.512C170.459 17.816 171.395 17.348 172.643 17.108L178.151 16.064V14.588C178.151 13.028 177.383 12.248 175.847 12.248C175.103 12.248 174.311 12.416 173.471 12.752C172.655 13.088 171.731 13.616 170.699 14.336L170.339 14.12L169.799 10.952C170.831 10.304 171.935 9.812 173.111 9.476C174.287 9.116 175.463 8.936 176.639 8.936ZM174.299 19.304C173.915 19.4 173.627 19.568 173.435 19.808C173.267 20.024 173.183 20.36 173.183 20.816C173.183 21.44 173.351 21.932 173.687 22.292C174.023 22.628 174.491 22.796 175.091 22.796C176.027 22.796 177.011 22.244 178.043 21.14L178.115 18.476L174.299 19.304ZM192.064 18.62L192.316 26H187.528L187.78 19.052L187.563 1.088L192.352 0.727999L192.064 18.62Z" fill="black"/>
</svg>
