<svg width="162" height="86" viewBox="0 0 162 86" fill="none" xmlns="http://www.w3.org/2000/svg">
<g filter="url(#filter0_d_106_100)">
<path d="M10.2526 27.224C8.60996 27.224 7.13796 26.9573 5.83663 26.424C4.53529 25.8907 3.48996 25.1013 2.70063 24.056C1.93263 23.0107 1.52729 21.752 1.48463 20.28H7.30863C7.39396 21.112 7.68196 21.752 8.17263 22.2C8.66329 22.6267 9.30329 22.84 10.0926 22.84C10.9033 22.84 11.5433 22.6587 12.0126 22.296C12.482 21.912 12.7166 21.3893 12.7166 20.728C12.7166 20.1733 12.5246 19.7147 12.1406 19.352C11.778 18.9893 11.3193 18.6907 10.7646 18.456C10.2313 18.2213 9.46329 17.9547 8.46063 17.656C7.00996 17.208 5.82596 16.76 4.90863 16.312C3.99129 15.864 3.20196 15.2027 2.54063 14.328C1.87929 13.4533 1.54863 12.312 1.54863 10.904C1.54863 8.81333 2.30596 7.18133 3.82063 6.008C5.33529 4.81333 7.30863 4.216 9.74063 4.216C12.2153 4.216 14.21 4.81333 15.7246 6.008C17.2393 7.18133 18.05 8.824 18.1566 10.936H12.2366C12.194 10.2107 11.9273 9.64533 11.4366 9.24C10.946 8.81333 10.3166 8.6 9.54862 8.6C8.88729 8.6 8.35396 8.78133 7.94863 9.144C7.54329 9.48533 7.34063 9.98667 7.34063 10.648C7.34063 11.3733 7.68196 11.9387 8.36462 12.344C9.04729 12.7493 10.114 13.1867 11.5646 13.656C13.0153 14.1467 14.1886 14.616 15.0846 15.064C16.002 15.512 16.7913 16.1627 17.4526 17.016C18.114 17.8693 18.4446 18.968 18.4446 20.312C18.4446 21.592 18.114 22.7547 17.4526 23.8C16.8126 24.8453 15.874 25.6773 14.6366 26.296C13.3993 26.9147 11.938 27.224 10.2526 27.224ZM39.4441 9.144V27H33.9721V24.568C33.4175 25.3573 32.6601 25.9973 31.7001 26.488C30.7615 26.9573 29.7161 27.192 28.5641 27.192C27.1988 27.192 25.9935 26.8933 24.9481 26.296C23.9028 25.6773 23.0921 24.792 22.5161 23.64C21.9401 22.488 21.6521 21.1333 21.6521 19.576V9.144H27.0921V18.84C27.0921 20.0347 27.4015 20.9627 28.0201 21.624C28.6388 22.2853 29.4708 22.616 30.5161 22.616C31.5828 22.616 32.4255 22.2853 33.0441 21.624C33.6628 20.9627 33.9721 20.0347 33.9721 18.84V9.144H39.4441ZM54.2546 8.952C56.3453 8.952 58.0093 9.63467 59.2466 11C60.5053 12.344 61.1346 14.2 61.1346 16.568V27H55.6946V17.304C55.6946 16.1093 55.3853 15.1813 54.7666 14.52C54.148 13.8587 53.316 13.528 52.2706 13.528C51.2253 13.528 50.3933 13.8587 49.7746 14.52C49.156 15.1813 48.8466 16.1093 48.8466 17.304V27H43.3746V9.144H48.8466V11.512C49.4013 10.7227 50.148 10.104 51.0866 9.656C52.0253 9.18667 53.0813 8.952 54.2546 8.952ZM72.2011 27.256C70.6438 27.256 69.2571 26.9893 68.0411 26.456C66.8251 25.9227 65.8651 25.1973 65.1611 24.28C64.4571 23.3413 64.0625 22.296 63.9771 21.144H69.3851C69.4491 21.7627 69.7371 22.264 70.2491 22.648C70.7611 23.032 71.3905 23.224 72.1371 23.224C72.8198 23.224 73.3425 23.096 73.7051 22.84C74.0891 22.5627 74.2811 22.2107 74.2811 21.784C74.2811 21.272 74.0145 20.8987 73.4811 20.664C72.9478 20.408 72.0838 20.1307 70.8891 19.832C69.6091 19.5333 68.5425 19.224 67.6891 18.904C66.8358 18.5627 66.0998 18.04 65.4811 17.336C64.8625 16.6107 64.5531 15.64 64.5531 14.424C64.5531 13.4 64.8305 12.472 65.3851 11.64C65.9611 10.7867 66.7931 10.1147 67.8811 9.624C68.9905 9.13333 70.3025 8.888 71.8171 8.888C74.0571 8.888 75.8171 9.44267 77.0971 10.552C78.3985 11.6613 79.1451 13.1333 79.3371 14.968H74.2811C74.1958 14.3493 73.9185 13.8587 73.4491 13.496C73.0011 13.1333 72.4038 12.952 71.6571 12.952C71.0171 12.952 70.5265 13.08 70.1851 13.336C69.8438 13.5707 69.6731 13.9013 69.6731 14.328C69.6731 14.84 69.9398 15.224 70.4731 15.48C71.0278 15.736 71.8811 15.992 73.0331 16.248C74.3558 16.5893 75.4331 16.9307 76.2651 17.272C77.0971 17.592 77.8225 18.1253 78.4411 18.872C79.0811 19.5973 79.4118 20.5787 79.4331 21.816C79.4331 22.8613 79.1345 23.8 78.5371 24.632C77.9611 25.4427 77.1185 26.0827 76.0091 26.552C74.9211 27.0213 73.6518 27.256 72.2011 27.256ZM93.7569 8.952C95.8049 8.952 97.4475 9.63467 98.6849 11C99.9222 12.344 100.541 14.2 100.541 16.568V27H95.1009V17.304C95.1009 16.1093 94.7915 15.1813 94.1729 14.52C93.5542 13.8587 92.7222 13.528 91.6769 13.528C90.6315 13.528 89.7995 13.8587 89.1809 14.52C88.5622 15.1813 88.2529 16.1093 88.2529 17.304V27H82.7809V3.32H88.2529V11.544C88.8075 10.7547 89.5649 10.1253 90.5249 9.656C91.4849 9.18667 92.5622 8.952 93.7569 8.952ZM107.095 7.288C106.135 7.288 105.346 7.01067 104.727 6.456C104.13 5.88 103.831 5.176 103.831 4.344C103.831 3.49067 104.13 2.78667 104.727 2.232C105.346 1.656 106.135 1.368 107.095 1.368C108.034 1.368 108.802 1.656 109.399 2.232C110.018 2.78667 110.327 3.49067 110.327 4.344C110.327 5.176 110.018 5.88 109.399 6.456C108.802 7.01067 108.034 7.288 107.095 7.288ZM109.815 9.144V27H104.343V9.144H109.815ZM124.661 8.952C126.752 8.952 128.416 9.63467 129.653 11C130.912 12.344 131.541 14.2 131.541 16.568V27H126.101V17.304C126.101 16.1093 125.792 15.1813 125.173 14.52C124.554 13.8587 123.722 13.528 122.677 13.528C121.632 13.528 120.8 13.8587 120.181 14.52C119.562 15.1813 119.253 16.1093 119.253 17.304V27H113.781V9.144H119.253V11.512C119.808 10.7227 120.554 10.104 121.493 9.656C122.432 9.18667 123.488 8.952 124.661 8.952ZM152.175 17.784C152.175 18.296 152.143 18.8293 152.079 19.384H139.695C139.781 20.4933 140.133 21.3467 140.751 21.944C141.391 22.52 142.17 22.808 143.087 22.808C144.453 22.808 145.402 22.232 145.935 21.08H151.759C151.461 22.2533 150.917 23.3093 150.127 24.248C149.359 25.1867 148.389 25.9227 147.215 26.456C146.042 26.9893 144.73 27.256 143.279 27.256C141.53 27.256 139.973 26.8827 138.607 26.136C137.242 25.3893 136.175 24.3227 135.407 22.936C134.639 21.5493 134.255 19.928 134.255 18.072C134.255 16.216 134.629 14.5947 135.375 13.208C136.143 11.8213 137.21 10.7547 138.575 10.008C139.941 9.26133 141.509 8.888 143.279 8.888C145.007 8.888 146.543 9.25067 147.887 9.976C149.231 10.7013 150.277 11.736 151.023 13.08C151.791 14.424 152.175 15.992 152.175 17.784ZM146.575 16.344C146.575 15.4053 146.255 14.6587 145.615 14.104C144.975 13.5493 144.175 13.272 143.215 13.272C142.298 13.272 141.519 13.5387 140.879 14.072C140.261 14.6053 139.877 15.3627 139.727 16.344H146.575ZM46.8776 76.224C45.235 76.224 43.763 75.9573 42.4616 75.424C41.1603 74.8907 40.115 74.1013 39.3256 73.056C38.5576 72.0107 38.1523 70.752 38.1096 69.28H43.9336C44.019 70.112 44.307 70.752 44.7976 71.2C45.2883 71.6267 45.9283 71.84 46.7176 71.84C47.5283 71.84 48.1683 71.6587 48.6376 71.296C49.107 70.912 49.3416 70.3893 49.3416 69.728C49.3416 69.1733 49.1496 68.7147 48.7656 68.352C48.403 67.9893 47.9443 67.6907 47.3896 67.456C46.8563 67.2213 46.0883 66.9547 45.0856 66.656C43.635 66.208 42.451 65.76 41.5336 65.312C40.6163 64.864 39.827 64.2027 39.1656 63.328C38.5043 62.4533 38.1736 61.312 38.1736 59.904C38.1736 57.8133 38.931 56.1813 40.4456 55.008C41.9603 53.8133 43.9336 53.216 46.3656 53.216C48.8403 53.216 50.835 53.8133 52.3496 55.008C53.8643 56.1813 54.675 57.824 54.7816 59.936H48.8616C48.819 59.2107 48.5523 58.6453 48.0616 58.24C47.571 57.8133 46.9416 57.6 46.1736 57.6C45.5123 57.6 44.979 57.7813 44.5736 58.144C44.1683 58.4853 43.9656 58.9867 43.9656 59.648C43.9656 60.3733 44.307 60.9387 44.9896 61.344C45.6723 61.7493 46.739 62.1867 48.1896 62.656C49.6403 63.1467 50.8136 63.616 51.7096 64.064C52.627 64.512 53.4163 65.1627 54.0776 66.016C54.739 66.8693 55.0696 67.968 55.0696 69.312C55.0696 70.592 54.739 71.7547 54.0776 72.8C53.4376 73.8453 52.499 74.6773 51.2616 75.296C50.0243 75.9147 48.563 76.224 46.8776 76.224ZM68.3891 71.36V76H65.6051C63.6211 76 62.0745 75.52 60.9651 74.56C59.8558 73.5787 59.3011 71.9893 59.3011 69.792V62.688H57.1251V58.144H59.3011V53.792H64.7731V58.144H68.3571V62.688H64.7731V69.856C64.7731 70.3893 64.9011 70.7733 65.1571 71.008C65.4131 71.2427 65.8398 71.36 66.4371 71.36H68.3891ZM79.5651 76.256C77.8158 76.256 76.2371 75.8827 74.8291 75.136C73.4425 74.3893 72.3438 73.3227 71.5331 71.936C70.7438 70.5493 70.3491 68.928 70.3491 67.072C70.3491 65.2373 70.7545 63.6267 71.5651 62.24C72.3758 60.832 73.4851 59.7547 74.8931 59.008C76.3011 58.2613 77.8798 57.888 79.6291 57.888C81.3785 57.888 82.9571 58.2613 84.3651 59.008C85.7731 59.7547 86.8825 60.832 87.6931 62.24C88.5038 63.6267 88.9091 65.2373 88.9091 67.072C88.9091 68.9067 88.4931 70.528 87.6611 71.936C86.8505 73.3227 85.7305 74.3893 84.3011 75.136C82.8931 75.8827 81.3145 76.256 79.5651 76.256ZM79.5651 71.52C80.6105 71.52 81.4958 71.136 82.2211 70.368C82.9678 69.6 83.3411 68.5013 83.3411 67.072C83.3411 65.6427 82.9785 64.544 82.2531 63.776C81.5491 63.008 80.6745 62.624 79.6291 62.624C78.5625 62.624 77.6771 63.008 76.9731 63.776C76.2691 64.5227 75.9171 65.6213 75.9171 67.072C75.9171 68.5013 76.2585 69.6 76.9411 70.368C77.6451 71.136 78.5198 71.52 79.5651 71.52ZM97.2841 61.12C97.9241 60.1387 98.7241 59.3707 99.6841 58.816C100.644 58.24 101.711 57.952 102.884 57.952V63.744H101.38C100.015 63.744 98.9908 64.0427 98.3081 64.64C97.6255 65.216 97.2841 66.24 97.2841 67.712V76H91.8121V58.144H97.2841V61.12ZM122.332 66.784C122.332 67.296 122.3 67.8293 122.236 68.384H109.852C109.937 69.4933 110.289 70.3467 110.908 70.944C111.548 71.52 112.326 71.808 113.244 71.808C114.609 71.808 115.558 71.232 116.092 70.08H121.916C121.617 71.2533 121.073 72.3093 120.284 73.248C119.516 74.1867 118.545 74.9227 117.372 75.456C116.198 75.9893 114.886 76.256 113.436 76.256C111.686 76.256 110.129 75.8827 108.764 75.136C107.398 74.3893 106.332 73.3227 105.564 71.936C104.796 70.5493 104.412 68.928 104.412 67.072C104.412 65.216 104.785 63.5947 105.532 62.208C106.3 60.8213 107.366 59.7547 108.732 59.008C110.097 58.2613 111.665 57.888 113.436 57.888C115.164 57.888 116.7 58.2507 118.044 58.976C119.388 59.7013 120.433 60.736 121.18 62.08C121.948 63.424 122.332 64.992 122.332 66.784ZM116.732 65.344C116.732 64.4053 116.412 63.6587 115.772 63.104C115.132 62.5493 114.332 62.272 113.372 62.272C112.454 62.272 111.676 62.5387 111.036 63.072C110.417 63.6053 110.033 64.3627 109.884 65.344H116.732Z" fill="url(#paint0_linear_106_100)"/>
</g>
<defs>
<filter id="filter0_d_106_100" x="0.484375" y="0.367981" width="160.691" height="84.888" filterUnits="userSpaceOnUse" color-interpolation-filters="sRGB">
<feFlood flood-opacity="0" result="BackgroundImageFix"/>
<feColorMatrix in="SourceAlpha" type="matrix" values="0 0 0 0 0 0 0 0 0 0 0 0 0 0 0 0 0 0 127 0" result="hardAlpha"/>
<feOffset dx="4" dy="4"/>
<feGaussianBlur stdDeviation="2.5"/>
<feComposite in2="hardAlpha" operator="out"/>
<feColorMatrix type="matrix" values="0 0 0 0 0 0 0 0 0 0 0 0 0 0 0 0 0 0 0.15 0"/>
<feBlend mode="normal" in2="BackgroundImageFix" result="effect1_dropShadow_106_100"/>
<feBlend mode="normal" in="SourceGraphic" in2="effect1_dropShadow_106_100" result="shape"/>
</filter>
<linearGradient id="paint0_linear_106_100" x1="27" y1="41" x2="118" y2="41" gradientUnits="userSpaceOnUse">
<stop stop-color="#387FEA"/>
<stop offset="0.363743" stop-color="#164BD3"/>
<stop offset="1" stop-color="#0A114B"/>
</linearGradient>
</defs>
</svg>
