<svg width="152" height="76" viewBox="0 0 152 76" fill="none" xmlns="http://www.w3.org/2000/svg">
<path d="M9.25263 26.224C7.60996 26.224 6.13796 25.9573 4.83663 25.424C3.53529 24.8907 2.48996 24.1013 1.70063 23.056C0.932625 22.0107 0.527292 20.752 0.484625 19.28H6.30863C6.39396 20.112 6.68196 20.752 7.17263 21.2C7.66329 21.6267 8.30329 21.84 9.09263 21.84C9.90329 21.84 10.5433 21.6587 11.0126 21.296C11.482 20.912 11.7166 20.3893 11.7166 19.728C11.7166 19.1733 11.5246 18.7147 11.1406 18.352C10.778 17.9893 10.3193 17.6907 9.76463 17.456C9.23129 17.2213 8.46329 16.9547 7.46063 16.656C6.00996 16.208 4.82596 15.76 3.90863 15.312C2.99129 14.864 2.20196 14.2027 1.54063 13.328C0.879292 12.4533 0.548625 11.312 0.548625 9.904C0.548625 7.81333 1.30596 6.18133 2.82063 5.008C4.33529 3.81333 6.30863 3.216 8.74063 3.216C11.2153 3.216 13.21 3.81333 14.7246 5.008C16.2393 6.18133 17.05 7.824 17.1566 9.936H11.2366C11.194 9.21067 10.9273 8.64533 10.4366 8.24C9.94596 7.81333 9.31663 7.6 8.54862 7.6C7.88729 7.6 7.35396 7.78133 6.94863 8.144C6.54329 8.48533 6.34063 8.98667 6.34063 9.648C6.34063 10.3733 6.68196 10.9387 7.36462 11.344C8.04729 11.7493 9.11396 12.1867 10.5646 12.656C12.0153 13.1467 13.1886 13.616 14.0846 14.064C15.002 14.512 15.7913 15.1627 16.4526 16.016C17.114 16.8693 17.4446 17.968 17.4446 19.312C17.4446 20.592 17.114 21.7547 16.4526 22.8C15.8126 23.8453 14.874 24.6773 13.6366 25.296C12.3993 25.9147 10.938 26.224 9.25263 26.224ZM38.4441 8.144V26H32.9721V23.568C32.4175 24.3573 31.6601 24.9973 30.7001 25.488C29.7615 25.9573 28.7161 26.192 27.5641 26.192C26.1988 26.192 24.9935 25.8933 23.9481 25.296C22.9028 24.6773 22.0921 23.792 21.5161 22.64C20.9401 21.488 20.6521 20.1333 20.6521 18.576V8.144H26.0921V17.84C26.0921 19.0347 26.4015 19.9627 27.0201 20.624C27.6388 21.2853 28.4708 21.616 29.5161 21.616C30.5828 21.616 31.4255 21.2853 32.0441 20.624C32.6628 19.9627 32.9721 19.0347 32.9721 17.84V8.144H38.4441ZM53.2546 7.952C55.3453 7.952 57.0093 8.63467 58.2466 10C59.5053 11.344 60.1346 13.2 60.1346 15.568V26H54.6946V16.304C54.6946 15.1093 54.3853 14.1813 53.7666 13.52C53.148 12.8587 52.316 12.528 51.2706 12.528C50.2253 12.528 49.3933 12.8587 48.7746 13.52C48.156 14.1813 47.8466 15.1093 47.8466 16.304V26H42.3746V8.144H47.8466V10.512C48.4013 9.72267 49.148 9.104 50.0866 8.656C51.0253 8.18667 52.0813 7.952 53.2546 7.952ZM71.2011 26.256C69.6438 26.256 68.2571 25.9893 67.0411 25.456C65.8251 24.9227 64.8651 24.1973 64.1611 23.28C63.4571 22.3413 63.0625 21.296 62.9771 20.144H68.3851C68.4491 20.7627 68.7371 21.264 69.2491 21.648C69.7611 22.032 70.3905 22.224 71.1371 22.224C71.8198 22.224 72.3425 22.096 72.7051 21.84C73.0891 21.5627 73.2811 21.2107 73.2811 20.784C73.2811 20.272 73.0145 19.8987 72.4811 19.664C71.9478 19.408 71.0838 19.1307 69.8891 18.832C68.6091 18.5333 67.5425 18.224 66.6891 17.904C65.8358 17.5627 65.0998 17.04 64.4811 16.336C63.8625 15.6107 63.5531 14.64 63.5531 13.424C63.5531 12.4 63.8305 11.472 64.3851 10.64C64.9611 9.78667 65.7931 9.11467 66.8811 8.624C67.9905 8.13333 69.3025 7.888 70.8171 7.888C73.0571 7.888 74.8171 8.44267 76.0971 9.552C77.3985 10.6613 78.1451 12.1333 78.3371 13.968H73.2811C73.1958 13.3493 72.9185 12.8587 72.4491 12.496C72.0011 12.1333 71.4038 11.952 70.6571 11.952C70.0171 11.952 69.5265 12.08 69.1851 12.336C68.8438 12.5707 68.6731 12.9013 68.6731 13.328C68.6731 13.84 68.9398 14.224 69.4731 14.48C70.0278 14.736 70.8811 14.992 72.0331 15.248C73.3558 15.5893 74.4331 15.9307 75.2651 16.272C76.0971 16.592 76.8225 17.1253 77.4411 17.872C78.0811 18.5973 78.4118 19.5787 78.4331 20.816C78.4331 21.8613 78.1345 22.8 77.5371 23.632C76.9611 24.4427 76.1185 25.0827 75.0091 25.552C73.9211 26.0213 72.6518 26.256 71.2011 26.256ZM92.7569 7.952C94.8049 7.952 96.4475 8.63467 97.6849 10C98.9222 11.344 99.5409 13.2 99.5409 15.568V26H94.1009V16.304C94.1009 15.1093 93.7915 14.1813 93.1729 13.52C92.5542 12.8587 91.7222 12.528 90.6769 12.528C89.6315 12.528 88.7995 12.8587 88.1809 13.52C87.5622 14.1813 87.2529 15.1093 87.2529 16.304V26H81.7809V2.32H87.2529V10.544C87.8075 9.75467 88.5649 9.12533 89.5249 8.656C90.4849 8.18667 91.5622 7.952 92.7569 7.952ZM106.095 6.288C105.135 6.288 104.346 6.01067 103.727 5.456C103.13 4.88 102.831 4.176 102.831 3.344C102.831 2.49067 103.13 1.78667 103.727 1.232C104.346 0.655998 105.135 0.367998 106.095 0.367998C107.034 0.367998 107.802 0.655998 108.399 1.232C109.018 1.78667 109.327 2.49067 109.327 3.344C109.327 4.176 109.018 4.88 108.399 5.456C107.802 6.01067 107.034 6.288 106.095 6.288ZM108.815 8.144V26H103.343V8.144H108.815ZM123.661 7.952C125.752 7.952 127.416 8.63467 128.653 10C129.912 11.344 130.541 13.2 130.541 15.568V26H125.101V16.304C125.101 15.1093 124.792 14.1813 124.173 13.52C123.554 12.8587 122.722 12.528 121.677 12.528C120.632 12.528 119.8 12.8587 119.181 13.52C118.562 14.1813 118.253 15.1093 118.253 16.304V26H112.781V8.144H118.253V10.512C118.808 9.72267 119.554 9.104 120.493 8.656C121.432 8.18667 122.488 7.952 123.661 7.952ZM151.175 16.784C151.175 17.296 151.143 17.8293 151.079 18.384H138.695C138.781 19.4933 139.133 20.3467 139.751 20.944C140.391 21.52 141.17 21.808 142.087 21.808C143.453 21.808 144.402 21.232 144.935 20.08H150.759C150.461 21.2533 149.917 22.3093 149.127 23.248C148.359 24.1867 147.389 24.9227 146.215 25.456C145.042 25.9893 143.73 26.256 142.279 26.256C140.53 26.256 138.973 25.8827 137.607 25.136C136.242 24.3893 135.175 23.3227 134.407 21.936C133.639 20.5493 133.255 18.928 133.255 17.072C133.255 15.216 133.629 13.5947 134.375 12.208C135.143 10.8213 136.21 9.75467 137.575 9.008C138.941 8.26133 140.509 7.888 142.279 7.888C144.007 7.888 145.543 8.25067 146.887 8.976C148.231 9.70133 149.277 10.736 150.023 12.08C150.791 13.424 151.175 14.992 151.175 16.784ZM145.575 15.344C145.575 14.4053 145.255 13.6587 144.615 13.104C143.975 12.5493 143.175 12.272 142.215 12.272C141.298 12.272 140.519 12.5387 139.879 13.072C139.261 13.6053 138.877 14.3627 138.727 15.344H145.575ZM45.8776 75.224C44.235 75.224 42.763 74.9573 41.4616 74.424C40.1603 73.8907 39.115 73.1013 38.3256 72.056C37.5576 71.0107 37.1523 69.752 37.1096 68.28H42.9336C43.019 69.112 43.307 69.752 43.7976 70.2C44.2883 70.6267 44.9283 70.84 45.7176 70.84C46.5283 70.84 47.1683 70.6587 47.6376 70.296C48.107 69.912 48.3416 69.3893 48.3416 68.728C48.3416 68.1733 48.1496 67.7147 47.7656 67.352C47.403 66.9893 46.9443 66.6907 46.3896 66.456C45.8563 66.2213 45.0883 65.9547 44.0856 65.656C42.635 65.208 41.451 64.76 40.5336 64.312C39.6163 63.864 38.827 63.2027 38.1656 62.328C37.5043 61.4533 37.1736 60.312 37.1736 58.904C37.1736 56.8133 37.931 55.1813 39.4456 54.008C40.9603 52.8133 42.9336 52.216 45.3656 52.216C47.8403 52.216 49.835 52.8133 51.3496 54.008C52.8643 55.1813 53.675 56.824 53.7816 58.936H47.8616C47.819 58.2107 47.5523 57.6453 47.0616 57.24C46.571 56.8133 45.9416 56.6 45.1736 56.6C44.5123 56.6 43.979 56.7813 43.5736 57.144C43.1683 57.4853 42.9656 57.9867 42.9656 58.648C42.9656 59.3733 43.307 59.9387 43.9896 60.344C44.6723 60.7493 45.739 61.1867 47.1896 61.656C48.6403 62.1467 49.8136 62.616 50.7096 63.064C51.627 63.512 52.4163 64.1627 53.0776 65.016C53.739 65.8693 54.0696 66.968 54.0696 68.312C54.0696 69.592 53.739 70.7547 53.0776 71.8C52.4376 72.8453 51.499 73.6773 50.2616 74.296C49.0243 74.9147 47.563 75.224 45.8776 75.224ZM67.3891 70.36V75H64.6051C62.6211 75 61.0745 74.52 59.9651 73.56C58.8558 72.5787 58.3011 70.9893 58.3011 68.792V61.688H56.1251V57.144H58.3011V52.792H63.7731V57.144H67.3571V61.688H63.7731V68.856C63.7731 69.3893 63.9011 69.7733 64.1571 70.008C64.4131 70.2427 64.8398 70.36 65.4371 70.36H67.3891ZM78.5651 75.256C76.8158 75.256 75.2371 74.8827 73.8291 74.136C72.4425 73.3893 71.3438 72.3227 70.5331 70.936C69.7438 69.5493 69.3491 67.928 69.3491 66.072C69.3491 64.2373 69.7545 62.6267 70.5651 61.24C71.3758 59.832 72.4851 58.7547 73.8931 58.008C75.3011 57.2613 76.8798 56.888 78.6291 56.888C80.3785 56.888 81.9571 57.2613 83.3651 58.008C84.7731 58.7547 85.8825 59.832 86.6931 61.24C87.5038 62.6267 87.9091 64.2373 87.9091 66.072C87.9091 67.9067 87.4931 69.528 86.6611 70.936C85.8505 72.3227 84.7305 73.3893 83.3011 74.136C81.8931 74.8827 80.3145 75.256 78.5651 75.256ZM78.5651 70.52C79.6105 70.52 80.4958 70.136 81.2211 69.368C81.9678 68.6 82.3411 67.5013 82.3411 66.072C82.3411 64.6427 81.9785 63.544 81.2531 62.776C80.5491 62.008 79.6745 61.624 78.6291 61.624C77.5625 61.624 76.6771 62.008 75.9731 62.776C75.2691 63.5227 74.9171 64.6213 74.9171 66.072C74.9171 67.5013 75.2585 68.6 75.9411 69.368C76.6451 70.136 77.5198 70.52 78.5651 70.52ZM96.2841 60.12C96.9241 59.1387 97.7241 58.3707 98.6841 57.816C99.6441 57.24 100.711 56.952 101.884 56.952V62.744H100.38C99.0148 62.744 97.9908 63.0427 97.3081 63.64C96.6255 64.216 96.2841 65.24 96.2841 66.712V75H90.8121V57.144H96.2841V60.12ZM121.332 65.784C121.332 66.296 121.3 66.8293 121.236 67.384H108.852C108.937 68.4933 109.289 69.3467 109.908 69.944C110.548 70.52 111.326 70.808 112.244 70.808C113.609 70.808 114.558 70.232 115.092 69.08H120.916C120.617 70.2533 120.073 71.3093 119.284 72.248C118.516 73.1867 117.545 73.9227 116.372 74.456C115.198 74.9893 113.886 75.256 112.436 75.256C110.686 75.256 109.129 74.8827 107.764 74.136C106.398 73.3893 105.332 72.3227 104.564 70.936C103.796 69.5493 103.412 67.928 103.412 66.072C103.412 64.216 103.785 62.5947 104.532 61.208C105.3 59.8213 106.366 58.7547 107.732 58.008C109.097 57.2613 110.665 56.888 112.436 56.888C114.164 56.888 115.7 57.2507 117.044 57.976C118.388 58.7013 119.433 59.736 120.18 61.08C120.948 62.424 121.332 63.992 121.332 65.784ZM115.732 64.344C115.732 63.4053 115.412 62.6587 114.772 62.104C114.132 61.5493 113.332 61.272 112.372 61.272C111.454 61.272 110.676 61.5387 110.036 62.072C109.417 62.6053 109.033 63.3627 108.884 64.344H115.732Z" fill="url(#paint0_linear_208_29)"/>
<defs>
<linearGradient id="paint0_linear_208_29" x1="26" y1="40" x2="117" y2="40" gradientUnits="userSpaceOnUse">
<stop stop-color="#387FEA"/>
<stop offset="0.363743" stop-color="#164BD3"/>
<stop offset="1" stop-color="#0A114B"/>
</linearGradient>
</defs>
</svg>
